<?xml version="1.0" encoding="UTF-8" standalone="no"?>
<!DOCTYPE svg PUBLIC "-//W3C//DTD SVG 1.1//EN" "http://www.w3.org/Graphics/SVG/1.1/DTD/svg11.dtd">
<svg width="100%" height="100%" viewBox="0 0 3300 2550" version="1.1" xmlns="http://www.w3.org/2000/svg" xmlns:xlink="http://www.w3.org/1999/xlink" xml:space="preserve" xmlns:serif="http://www.serif.com/" style="fill-rule:evenodd;clip-rule:evenodd;stroke-linejoin:round;stroke-miterlimit:2;">
    <g transform="matrix(1,0,0,1,-11.4444,-4.72617)">
        <path d="M1411.37,843.517C1412.28,843.235 1413.23,843.07 1414.21,843.035C1418.11,842.895 1421.8,844.861 1423.85,848.184C1426.2,851.977 1430.15,855.859 1436.04,859.477L1444.83,838.609C1445.63,836.705 1446.95,835.068 1448.65,833.891C1452.73,831.065 1462.09,824.841 1471.28,820.474C1496.75,808.371 1536.44,794.071 1589.54,776.373C1674.65,748.002 1822.23,750.269 1926.24,794.719C1992.65,823.102 2041.44,868.735 2040.65,936.455C2040.42,956.016 2036.18,977.204 2027.32,1000.14C2026.61,1001.97 2025.42,1003.58 2023.88,1004.79C2020.16,1007.7 2016.74,1010.97 2013.63,1014.61C2016.61,1017.89 2017.37,1022.77 2015.26,1026.9C2004.69,1047.54 1990.58,1069.55 1972.6,1093.02C1897.7,1190.71 1779.13,1192.04 1718.06,1159.98C1706.39,1153.86 1696.54,1146.86 1690.48,1139.09C1685.34,1132.48 1682.65,1125.25 1682.86,1117.44C1683.15,1106.63 1690.02,1095.82 1703.71,1085.17C1710.8,1079.66 1721.8,1077.31 1732.63,1076.02C1743.14,1074.76 1753.62,1074.72 1761.34,1074.98L1772.43,1052.8C1765.47,1052.29 1747.75,1051.31 1729.93,1053.43C1714.76,1055.24 1699.67,1059.5 1689.75,1067.22C1670.53,1082.17 1661.77,1098.27 1660.32,1113.52C1658.81,1129.35 1665.05,1144.86 1677.85,1158.38C1698.57,1180.26 1737.54,1197.17 1783.47,1200.66C1850.6,1205.77 1932.54,1182.66 1990.65,1106.86C2014.06,1076.32 2031.2,1047.84 2042.96,1021.37C2043.99,1019.03 2045.83,1017.13 2048.13,1016.01C2065.84,1007.37 2089.95,1007.56 2115.49,1013.38C2177.52,1027.53 2249.25,1077.22 2281.02,1140.77C2337.76,1254.25 2341.04,1336.76 2318.74,1395.5C2296.91,1452.99 2250.75,1486.96 2209.45,1504.46C2188.32,1513.41 2168.46,1518.07 2153.74,1519.2C2152.09,1519.33 2150.28,1519.36 2148.52,1519.34L2142.91,1530.58C2141.19,1534.01 2137.8,1536.28 2133.97,1536.57L2108.95,1538.4C2107.38,1554.12 2100.15,1570.06 2088.57,1585.8C2073.18,1606.74 2050.17,1627.12 2021.57,1645.93C1884.81,1735.86 1621.49,1789.17 1425.14,1683.45C1385.9,1662.31 1312.53,1560.33 1410.23,1495.19C1414.69,1492.22 1441.57,1474.19 1469.48,1467.4C1481.3,1464.53 1493.44,1463.42 1503.45,1467.76L1520.18,1451.03C1504.29,1440.82 1484.07,1440.45 1464.1,1445.3C1432.82,1452.91 1402.61,1472.93 1397.62,1476.26C1341.02,1514 1331.54,1561.9 1342.62,1604.36C1343.36,1607.21 1342.92,1610.24 1341.38,1612.76C1339.95,1615.12 1337.68,1616.83 1335.04,1617.58L1334.79,1618.37C1333.2,1621.64 1330.37,1625.03 1327.12,1628.65C1317.95,1638.86 1303.54,1648.87 1285.11,1658.3C1193.99,1704.93 1008.03,1734.82 839.716,1678.71C778.962,1658.46 715.894,1593.2 726.934,1522.13C731.292,1494.07 747.398,1465.42 779.264,1438.26L765.286,1420.29C752.398,1431.18 741.772,1442.35 733.169,1453.65C731.817,1455.42 729.951,1456.74 727.825,1457.42C726.797,1457.75 725.713,1458.11 724.574,1458.5C707.128,1464.48 667.902,1477.37 623.685,1460.26C585.893,1445.63 545.107,1409.33 510.182,1330.75C441.813,1176.92 556.846,1064.79 681.636,1017.46C732.125,998.315 784.41,989.659 827.479,993.34C828.956,993.466 830.421,993.606 831.874,993.76C834.182,994.004 836.351,994.98 838.065,996.545L847.418,1005.09C847.961,1004.4 848.504,1003.71 849.048,1003C851.78,999.469 856.393,997.965 860.683,999.207C869.763,1001.84 878.036,1005.3 885.324,1009.63L899.623,991.761C893.731,988.051 887.264,984.808 880.298,982.031C877.212,980.801 874.857,978.228 873.904,975.046C872.95,971.864 873.503,968.42 875.404,965.696C876.785,963.717 878.189,961.718 879.621,959.701C912.389,913.546 961.234,857.714 1074.07,832.069C1205.57,802.183 1293.87,784.359 1411.37,843.517ZM1757.3,1085.76C1757.28,1084.21 1757.6,1082.66 1758.24,1081.21C1758.21,1081.25 1758.19,1081.28 1758.17,1081.33C1757.37,1082.93 1757.03,1084.4 1757.03,1085.76C1757.12,1085.76 1757.21,1085.76 1757.3,1085.76ZM2136.93,1518.19L2136.97,1518.2L2139.88,1518.76L2142.43,1508.2C2141.48,1508.13 2140.9,1508.07 2140.9,1508.07C2140.9,1508.07 2141.54,1508.33 2141.8,1508.46L2136.93,1518.19Z" style="fill:white;"/>
    </g>
    <g transform="matrix(1,0,0,1,-99.6365,258.534)">
        <path d="M934.162,729.349C970.306,677.668 1016.88,599.738 1160.26,567.151C1299.06,535.604 1391.98,518.306 1516.31,581.606C1517.64,579.893 1519.23,578.175 1521.1,576.464C1538.47,560.51 1589.95,539.917 1673.34,512.119C1762.96,482.247 1918.37,484.396 2027.88,531.199C2104.43,563.916 2158.46,618.284 2157.55,696.347C2157.36,711.99 2154.93,728.677 2149.9,746.421C2168.65,742.492 2190.15,743.292 2212.84,748.467C2281.25,764.07 2360.23,819.04 2395.27,889.122C2456.44,1011.46 2458.04,1100.69 2434,1164.02C2409.38,1228.86 2357.6,1267.47 2311.02,1287.21C2282.71,1299.2 2256.31,1304.19 2239.03,1304.21C2233.78,1304.22 2229.19,1303.72 2225.37,1302.9C2219.73,1344.92 2184.04,1389.12 2127.14,1426.53C1984.49,1520.34 1709.79,1575.46 1504.98,1465.18C1485.92,1454.91 1460.51,1429.09 1444.18,1396.68C1444.1,1396.8 1444.01,1396.93 1443.92,1397.06C1433.8,1411.69 1414.73,1426.77 1388.32,1440.28C1293.22,1488.94 1099.18,1520.71 923.524,1462.16C852.578,1438.51 780.957,1360.86 793.849,1277.87C795.354,1268.18 797.991,1258.38 801.917,1248.57C777.97,1254.29 743.682,1257.74 706.37,1243.3C664.38,1227.05 617.77,1187.86 578.966,1100.56C503.639,931.069 626.989,805.699 764.478,753.554C818.779,732.959 875.057,723.929 921.378,727.887C925.726,728.259 929.991,728.746 934.162,729.349ZM821.44,1213.91C832.172,1199.37 846.194,1185.02 864.03,1171.15L880.934,1192.88C844.045,1221.57 825.709,1252.15 821.057,1282.09C810.193,1352.03 872.447,1416.11 932.231,1436.04C1099.85,1491.91 1285.03,1462.2 1375.78,1415.77C1393.89,1406.5 1408.08,1396.68 1417.09,1386.65C1423.42,1379.6 1427.29,1372.95 1425.79,1366.26L1432.07,1364.85C1420.88,1321.45 1430.25,1272.4 1488.05,1233.87C1493.1,1230.5 1523.66,1210.26 1555.3,1202.57C1579.88,1196.6 1604.8,1198.45 1622.14,1215.81L1602.67,1235.28C1592.16,1224.76 1576.7,1225.7 1561.8,1229.33C1534.25,1236.03 1507.72,1253.84 1503.32,1256.78C1407.73,1320.5 1479.64,1420.26 1518.04,1440.94C1713.57,1546.22 1975.82,1493.08 2112.01,1403.52C2140.35,1384.89 2163.15,1364.72 2178.4,1343.98C2192.29,1325.1 2199.85,1305.95 2198.47,1287.26L2224.93,1285.31L2229.76,1275.65C2232.71,1277.12 2238.2,1276.96 2245.31,1276.41C2259.84,1275.29 2279.43,1270.69 2300.28,1261.86C2341.07,1244.57 2386.7,1211.03 2408.26,1154.25C2430.39,1095.94 2426.96,1014.07 2370.64,901.436C2339.18,838.512 2268.14,789.321 2206.72,775.312C2180.42,769.313 2155.8,769.479 2138.04,779.405C2126.21,806.696 2108.63,836.183 2084.31,867.909C2000.2,977.617 1866.71,977.838 1798.13,941.841C1766.8,925.391 1748.82,901.036 1749.48,876.364C1749.93,859.53 1758.71,841.51 1780.04,824.924C1790.26,816.976 1805.78,812.519 1821.4,810.653C1842.17,808.173 1862.81,809.87 1866.79,810.201L1870.09,810.861C1870.41,810.965 1871.09,811.249 1875.76,813.585L1863.79,837.535C1864.05,837.585 1864.29,837.623 1864.5,837.641C1864.3,837.624 1864.06,837.603 1863.76,837.579L1863.45,838.213C1862.87,837.924 1862.36,837.665 1861.91,837.436C1855.44,836.966 1840.1,836.151 1824.67,837.993C1814.3,839.232 1803.73,841.382 1796.94,846.659C1783.97,856.746 1777.28,866.864 1777.01,877.103C1776.58,893.049 1790.68,906.829 1810.93,917.461C1871.28,949.141 1988.43,947.705 2062.45,851.156C2080.12,828.109 2094.03,806.435 2104.52,786.061L2097.13,781.405C2102.24,773.305 2108.57,766.569 2115.91,761.148C2125.29,737.594 2129.78,715.93 2130.01,696.024C2130.8,629.288 2082.5,584.488 2017.06,556.518C1913.58,512.292 1766.74,510.013 1682.05,538.241C1616.35,560.142 1571.33,576.671 1548.67,590.356C1545.44,592.307 1542.15,595.012 1540.01,596.9C1541.98,598.145 1544.73,599.76 1547.28,600.836L1536.6,626.213C1521.4,619.815 1513.9,611.558 1511.36,603.951L1508.85,608.744C1388.49,545.697 1299.76,563.684 1166.36,594.001C1054.35,619.457 1005.86,674.868 973.331,720.684C969.663,725.851 966.18,730.901 962.824,735.784C977.889,740.546 991.057,747.229 1001.77,755.796L984.565,777.297C974.318,769.1 961.203,763.312 946.088,759.615C942.027,765.084 938.012,770.119 933.911,774.61L913.577,756.044C913.897,755.694 914.216,755.341 914.534,754.985C872.661,752.281 822.623,760.95 774.243,779.299C650.661,826.169 536.42,937.032 604.127,1089.37C638.684,1167.12 678.914,1203.15 716.307,1217.62C759.806,1234.45 798.393,1221.71 815.556,1215.83C817.748,1215.08 819.717,1214.44 821.44,1213.91Z" style="fill:white;"/>
        <path d="M1442.9,1411.03C1431.42,1423.48 1414.2,1436.03 1391.96,1447.4C1295.6,1496.71 1098.99,1529.08 920.994,1469.75C846.804,1445.02 772.462,1363.43 785.944,1276.64C786.844,1270.84 788.126,1265.01 789.821,1259.16C766.113,1263.03 735.886,1263.3 703.482,1250.76C660.156,1233.99 611.694,1193.89 571.656,1103.81C494.113,929.333 620.108,799.752 761.641,746.073C817.155,725.019 874.703,715.87 922.059,719.916C924.868,720.156 927.643,720.443 930.382,720.776C966.932,668.089 1015.78,591.783 1158.49,559.35C1297.36,527.788 1390.96,510.713 1514.46,571.729C1514.86,571.343 1515.26,570.957 1515.68,570.571C1533.41,554.297 1585.75,532.885 1670.81,504.53C1761.87,474.18 1919.76,476.291 2031.02,523.842C2110.81,557.94 2166.5,615.083 2165.55,696.441C2165.4,709.184 2163.82,722.593 2160.64,736.674C2177.28,734.952 2195.55,736.319 2214.62,740.667C2285.06,756.733 2366.34,813.383 2402.42,885.544C2465,1010.7 2466.07,1102.07 2441.48,1166.86C2415.97,1234.04 2362.41,1274.12 2314.14,1294.57C2284.62,1307.08 2257.06,1312.19 2239.04,1312.21C2236.52,1312.21 2234.14,1312.11 2231.9,1311.92C2222.92,1353.33 2187.24,1396.59 2131.54,1433.21C1987.01,1528.25 1708.68,1583.95 1501.19,1472.22C1483.28,1462.58 1459.93,1440.02 1442.9,1411.03ZM933.017,737.267C928.997,736.686 924.888,736.216 920.696,735.858C875.41,731.989 820.403,740.899 767.315,761.034C633.868,811.646 513.164,932.803 586.277,1097.31C623.846,1181.84 668.603,1220.1 709.257,1235.84C744.715,1249.56 777.302,1246.22 800.058,1240.79C802.966,1240.09 806.018,1241.08 807.971,1243.34C809.925,1245.6 810.455,1248.76 809.345,1251.54C805.652,1260.77 803.17,1269.98 801.754,1279.1C789.451,1358.29 858.352,1432.01 926.054,1454.57C1099.38,1512.35 1290.84,1481.17 1384.68,1433.16C1409.62,1420.39 1427.78,1406.33 1437.35,1392.51L1437.58,1392.17C1439.17,1389.83 1441.89,1388.51 1444.71,1388.7C1447.54,1388.88 1450.06,1390.55 1451.33,1393.08C1466.8,1423.8 1490.71,1448.41 1508.78,1458.14C1710.88,1566.96 1981.97,1512.42 2122.75,1419.85C2177.27,1383.99 2212.03,1342.11 2217.44,1301.84C2217.74,1299.63 2218.94,1297.64 2220.76,1296.36C2222.59,1295.08 2224.86,1294.61 2227.04,1295.08C2230.4,1295.8 2234.42,1296.21 2239.03,1296.21C2255.56,1296.19 2280.8,1291.32 2307.9,1279.84C2352.8,1260.82 2402.79,1223.68 2426.52,1161.18C2450.01,1099.32 2447.87,1012.22 2388.11,892.7C2354.11,824.698 2277.44,771.407 2211.06,756.267C2189.61,751.373 2169.28,750.535 2151.55,754.251C2148.8,754.825 2145.97,753.925 2144.05,751.878C2142.14,749.831 2141.44,746.935 2142.21,744.242C2147.02,727.236 2149.37,711.246 2149.55,696.253C2150.42,621.483 2098.06,569.892 2024.73,538.555C1916.98,492.501 1764.06,490.314 1675.87,519.709C1594.15,546.949 1543.53,566.723 1526.51,582.357C1524.99,583.745 1523.7,585.134 1522.62,586.524C1520.27,589.547 1516.1,590.474 1512.68,588.736C1390.24,526.399 1298.72,543.885 1162.03,574.952C1021.62,606.864 976.114,683.323 940.717,733.934C938.986,736.41 936.007,737.699 933.017,737.267ZM922.334,753.206L933.225,763.15C935.372,760.521 937.511,757.746 939.665,754.846C941.584,752.262 944.863,751.08 947.988,751.844C961.294,755.098 973.142,759.907 983.067,766.364L990.296,757.327C981.626,751.569 971.571,746.939 960.413,743.412C957.996,742.648 956.084,740.784 955.259,738.386C954.435,735.989 954.795,733.343 956.231,731.254C959.608,726.338 963.115,721.255 966.808,716.053C1000.14,669.103 1049.81,612.286 1164.59,586.199C1297.62,555.965 1386.92,538.26 1505.81,598.188C1507.44,596.625 1509.68,595.789 1512,595.976C1515.2,596.234 1517.94,598.376 1518.95,601.419C1520.55,606.207 1524.85,611.007 1532.5,615.334L1537.07,604.486C1536.6,604.202 1536.15,603.925 1535.74,603.662C1533.61,602.315 1532.23,600.043 1532.04,597.531C1531.84,595.019 1532.83,592.56 1534.72,590.895C1537.15,588.759 1540.88,585.715 1544.53,583.508C1567.48,569.653 1613.01,552.823 1679.52,530.651C1765.64,501.945 1914.97,504.187 2020.2,549.161C2088.87,578.51 2138.83,626.093 2138.01,696.118C2137.77,716.896 2133.13,739.52 2123.35,764.107C2122.79,765.493 2121.86,766.698 2120.66,767.584C2116.19,770.888 2112.14,774.741 2108.56,779.155L2108.78,779.293C2112.29,781.506 2113.53,786.033 2111.63,789.721C2100.95,810.471 2086.8,832.552 2068.8,856.023C1991.85,956.396 1869.95,957.479 1807.21,924.545C1783.75,912.227 1768.51,895.362 1769.01,876.888C1769.34,864.736 1776.64,852.317 1792.03,840.344C1799.81,834.292 1811.82,831.47 1823.72,830.05C1837.44,828.411 1851.11,828.783 1858.99,829.231L1864.59,818.049C1858.45,817.574 1840.45,816.435 1822.35,818.596C1808.26,820.28 1794.17,824.067 1784.95,831.239C1766.05,845.934 1757.88,861.663 1757.48,876.579C1756.89,898.709 1773.74,920.002 1801.85,934.758C1868.04,969.5 1996.78,968.926 2077.96,863.041C2101.82,831.914 2119.09,802.999 2130.7,776.224C2131.39,774.614 2132.6,773.278 2134.14,772.422C2153.38,761.67 2180.01,761.015 2208.5,767.513C2271.95,781.985 2345.29,832.855 2377.8,897.858C2435.52,1013.31 2438.42,1097.32 2415.73,1157.09C2393.28,1216.21 2345.88,1251.22 2303.4,1269.22C2281.61,1278.45 2261.11,1283.22 2245.93,1284.39C2241.48,1284.73 2237.55,1284.81 2234.24,1284.57L2232.09,1288.89C2230.83,1291.41 2228.33,1293.08 2225.52,1293.29L2206.56,1294.68C2205.76,1312.56 2198.03,1330.79 2184.85,1348.72C2169.11,1370.12 2145.64,1390.99 2116.41,1410.21C1978.34,1501 1712.47,1554.72 1514.25,1447.98C1473,1425.77 1396.2,1318.58 1498.88,1250.12C1503.47,1247.06 1531.17,1228.54 1559.91,1221.55C1574.83,1217.93 1590.1,1217.26 1602.02,1224.62L1610.34,1216.3C1595.52,1205.94 1576.19,1205.72 1557.19,1210.34C1526.74,1217.75 1497.35,1237.28 1492.48,1240.53C1438.45,1276.55 1429.35,1322.27 1439.82,1362.85C1440.36,1364.95 1440.02,1367.17 1438.9,1369.02C1437.77,1370.87 1435.94,1372.18 1433.83,1372.65L1433.77,1372.66C1432.69,1379 1428.9,1385.47 1423.05,1391.99C1413.52,1402.61 1398.58,1413.09 1379.42,1422.89C1287.41,1469.97 1099.66,1500.28 929.701,1443.63C866.675,1422.62 801.699,1354.59 813.152,1280.87C817.789,1251.02 835.058,1220.4 869.785,1191.58L862.7,1182.47C848.437,1194.27 836.935,1206.39 827.877,1218.66C826.855,1220.05 825.413,1221.07 823.765,1221.57C822.121,1222.07 820.242,1222.68 818.149,1223.4C800.039,1229.6 759.319,1242.84 713.42,1225.08C674.692,1210.09 632.607,1173.15 596.817,1092.62C526.897,935.301 643.785,820.221 771.406,771.819C820.938,753.033 872.18,744.233 915.049,747.001C918.104,747.199 920.778,749.122 921.938,751.954C922.106,752.364 922.237,752.783 922.334,753.206ZM1872.5,838.004C1872.49,838.104 1872.49,838.205 1872.48,838.305C1872.23,841.311 1870.35,843.789 1867.78,844.943C1865.48,846.417 1862.49,846.677 1859.87,845.369L1859.74,845.306C1852.85,844.857 1839.27,844.307 1825.62,845.937C1816.77,846.993 1807.64,848.472 1801.85,852.973C1791.3,861.181 1785.23,868.987 1785,877.318C1784.84,883.341 1787.66,888.854 1792.2,893.966C1797.64,900.099 1805.47,905.56 1814.65,910.378C1872.61,940.803 1985.02,939.015 2056.11,846.288C2071.59,826.091 2084.14,806.973 2093.98,788.873L2092.87,788.172C2089.13,785.816 2088.01,780.876 2090.37,777.138C2095.58,768.867 2101.95,761.882 2109.28,756.139C2117.7,734.409 2121.8,714.385 2122.01,695.93C2122.76,632.482 2076.13,590.466 2013.91,563.874C1912.18,520.397 1767.83,518.08 1684.58,545.83C1620.83,567.082 1576.76,583.116 1554,596.49C1555.39,598.636 1555.72,601.408 1554.66,603.941L1543.97,629.318C1542.26,633.39 1537.57,635.301 1533.49,633.586C1521.94,628.722 1514.29,622.758 1509.47,616.721C1508.02,616.834 1506.52,616.554 1505.14,615.831C1386.71,553.797 1299.38,571.972 1168.13,601.802C1058.89,626.629 1011.58,680.632 979.854,725.315C978.32,727.477 976.818,729.618 975.344,731.734C987.239,736.422 997.802,742.38 1006.76,749.549C1010.21,752.309 1010.77,757.344 1008.01,760.794L990.812,782.295C988.052,785.745 983.018,786.304 979.568,783.544C971.313,776.941 961.002,772.103 949.226,768.723C946.102,772.763 942.984,776.538 939.819,780.004C936.84,783.267 931.78,783.497 928.517,780.518L909.005,762.702C869.183,761.037 822.393,769.593 777.079,786.779C657.536,832.117 545.943,938.76 611.438,1086.12C644.761,1161.1 683.136,1196.2 719.195,1210.16C760.293,1226.06 796.747,1213.82 812.963,1208.26C814.244,1207.82 815.452,1207.42 816.583,1207.06C827.487,1192.71 841.499,1178.54 859.118,1164.83C862.606,1162.12 867.632,1162.75 870.345,1166.24L887.249,1187.97C889.962,1191.46 889.333,1196.48 885.846,1199.2C850.979,1226.32 833.359,1255.02 828.962,1283.32C818.687,1349.47 878.218,1409.6 934.761,1428.45C1100.04,1483.55 1282.65,1454.43 1372.13,1408.65C1389.21,1399.91 1402.65,1390.76 1411.14,1381.3C1413.71,1378.44 1415.85,1375.7 1417.12,1372.95C1417.9,1371.28 1418.35,1369.67 1417.98,1368.02C1417.13,1364.24 1419.11,1360.48 1422.52,1358.96C1413.66,1314.75 1425.53,1265.93 1483.61,1227.21C1488.85,1223.72 1520.58,1202.78 1553.41,1194.8C1580.8,1188.14 1608.46,1190.81 1627.8,1210.15C1630.93,1213.27 1630.93,1218.34 1627.8,1221.46L1608.33,1240.93C1605.21,1244.06 1600.14,1244.06 1597.02,1240.93C1588.48,1232.39 1575.79,1234.16 1563.69,1237.1C1537.32,1243.51 1511.97,1260.63 1507.76,1263.43C1419.26,1322.43 1486.28,1414.75 1521.83,1433.89C1714.67,1537.73 1973.3,1485.17 2107.62,1396.84C2135.06,1378.8 2157.19,1359.33 2171.96,1339.24C2184.57,1322.1 2191.74,1304.82 2190.49,1287.84C2190.17,1283.44 2193.48,1279.6 2197.89,1279.28L2219.81,1277.66L2222.61,1272.07C2224.58,1268.12 2229.39,1266.51 2233.34,1268.49C2234.01,1268.83 2235.01,1268.76 2236.21,1268.79C2238.6,1268.86 2241.46,1268.69 2244.69,1268.44C2258.56,1267.37 2277.26,1262.92 2297.15,1254.49C2336.27,1237.91 2380.1,1205.85 2400.78,1151.41C2422.36,1094.56 2418.39,1014.83 2363.49,905.014C2333.06,844.169 2264.33,796.658 2204.94,783.112C2181.94,777.866 2160.32,777.328 2144.24,785.188C2132.2,812.265 2114.67,841.456 2090.66,872.776C2003.62,986.309 1865.38,986.176 1794.42,948.924C1759.85,930.777 1740.76,903.366 1741.49,876.149C1741.99,857.396 1751.37,837.086 1775.12,818.609C1786.34,809.884 1803.3,804.757 1820.46,802.709C1841.96,800.141 1863.34,801.885 1867.45,802.229C1867.76,802.254 1868.06,802.297 1868.36,802.357L1871.66,803.016C1871.97,803.078 1872.27,803.158 1872.57,803.256C1872.95,803.38 1873.79,803.655 1879.34,806.43C1883.29,808.406 1884.89,813.211 1882.92,817.163L1872.5,838.004ZM1865.67,830.373C1865.63,830.354 1865.59,830.334 1865.56,830.315C1865.42,830.244 1865.28,830.176 1865.13,830.113L1865,831.734L1866.15,831.35L1865.67,830.373Z"/>
    </g>
</svg>
