<?xml version="1.0" encoding="UTF-8" standalone="no"?>
<!DOCTYPE svg PUBLIC "-//W3C//DTD SVG 1.1//EN" "http://www.w3.org/Graphics/SVG/1.1/DTD/svg11.dtd">
<svg width="100%" height="100%" viewBox="0 0 1668 2388" version="1.1" xmlns="http://www.w3.org/2000/svg" xmlns:xlink="http://www.w3.org/1999/xlink" xml:space="preserve" xmlns:serif="http://www.serif.com/" style="fill-rule:evenodd;clip-rule:evenodd;stroke-linecap:round;stroke-linejoin:round;stroke-miterlimit:1.5;">
    <path d="M509.994,1240.62L507.479,870.633L477.874,872.233L490.706,808.033L824.487,501.017C824.487,501.017 977.41,636.554 980.23,624.827L1180.86,811.744L1185.48,858.42L1161,860.841L1168.18,1218.99L1093.16,1157.39L1064.52,1178.98L1059.43,929.512L1005,928.367L1004.67,898.172L1016.41,876.457L936.349,869.328L828.271,864.773L758.015,869.28L691.694,878.995L654.709,880.079L666.014,895.015L665.431,928.424L614.424,931.643L612.259,1083.44L611.641,1188.58L576.75,1190.96M1056.22,1185.52L1039.74,1197.22L560.566,1205.03L572.986,1192.6L1056.22,1185.52Z" style="fill:rgb(175,214,209);stroke:rgb(175,214,209);stroke-width:6px;"/>
    <path d="M942.411,1367.88L1092.44,1213.01L1235.88,1346.97L1241.13,1364.54L942.411,1367.88ZM976.973,1824.58L964.227,1412.2L977.791,1384.91L1177.56,1381.46L1190.01,1408.26L1185.7,1468.07L995.141,1474.45L1004.17,1821.14L976.973,1824.58ZM1163.72,1820.34L1157.61,1469.01L1185.7,1468.07L1189,1816.59L1163.72,1820.34ZM528.97,1832.14L511.407,1393.24L904.922,1385.55L918.663,1405.03C918.663,1405.03 942.051,1824.05 938.639,1822.85C935.226,1821.64 862.867,1827.29 862.867,1827.29L856.02,1633.08L849.407,1482.02L545.341,1496.03L553.169,1724.35L528.97,1832.14ZM553.169,1724.35L858.077,1720.78L862.867,1827.29C862.867,1827.29 530.477,1838.22 531.446,1839.25C532.416,1840.29 553.169,1724.35 553.169,1724.35Z" style="fill:rgb(150,187,183);stroke:rgb(151,188,183);stroke-width:6px;"/>
    <path d="M988.303,943.453L1002.04,914.332L1000.74,913.926L1007.45,1180.69L688.532,1186.02L690.048,1174.72L821.033,1172.01L818.716,944.285L847.204,944.529L852.816,1169.6L988.421,1171.08L988.303,943.453ZM988.303,943.453L851.788,947.018L683.608,946.744L687.389,1186.26L670.899,1185.02L668.328,917.459L1002.04,914.332L995.959,927.22" style="fill:rgb(154,109,90);stroke:rgb(154,109,90);stroke-width:6px;"/>
    <g transform="matrix(1.00354,0,0,0.999001,-2.90006,1.17257)">
        <path d="M688.135,1173.92L682.168,951.945L689.029,954.842L694.049,1172.47M682.735,958.375L813.324,953.147L812.273,947.854L682.336,949.904L682.735,958.375ZM809.555,950.304L811.842,1169.35L819.631,1168.91L817.905,946.086L809.555,950.304ZM688.508,1174.01L687.548,1168.45L818.829,1162.84L819.666,1171.33L688.508,1174.01Z" style="fill:rgb(154,109,90);stroke:rgb(154,109,90);stroke-width:5.99px;"/>
    </g>
    <path d="M857.039,1168.81L852.919,952.929L857.994,953.395L862.318,1167.51L857.039,1168.81ZM852.326,952.097L851.432,950.295L982.966,949.409L982.368,953.989L852.326,952.097ZM981.943,1168.41L981.818,953.038L988.662,950.759L986.906,1170.63L981.943,1168.41ZM860.459,1166.46L859.851,1171.87L985.311,1172.05L985.519,1166.9L860.459,1166.46Z" style="fill:rgb(154,109,90);stroke:rgb(154,109,90);stroke-width:6px;"/>
    <path d="M694.94,1062.27L694.496,1050.72L808.576,1045.47L808.574,1060.88" style="fill:rgb(154,109,90);stroke:rgb(154,109,90);stroke-width:6px;"/>
    <path d="M863.413,1059.24L863.295,1045.85L978.52,1046.71L978.214,1059.61" style="fill:rgb(154,109,90);stroke:rgb(154,109,90);stroke-width:6px;"/>
    <path d="M615.447,1186.86L616.615,935.286L665.708,934.472C665.708,934.472 666.561,1180.86 667.82,1186.25L615.447,1186.86ZM1011.27,1179.38L1008.39,931.817L1055.43,931.007C1055.43,931.007 1057.46,1175.92 1058.66,1181.28L1011.27,1179.38Z" style="fill:rgb(118,82,31);stroke:rgb(118,82,31);stroke-width:6px;"/>
    <path d="M801.822,724.305L800.101,625.413L868.923,624.344L868.143,723.537" style="fill:rgb(243,161,170);stroke:rgb(118,82,31);stroke-width:6px;"/>
    <path d="M451.1,900.305L434.077,876.526L425.458,855.024L405.089,850.568L395.72,821.736L435.389,818.73L422.537,791.031L827.19,453.145L1237.84,783.313L1223,812.746L1266.49,809.865L1257.2,839.873L1238.36,844.447L1230.29,854.896L1183.04,859.215L1180.03,808.009L825.838,494.123L488.15,808.737L479.356,864.751L468.871,871.016L473.826,916.918L451.1,900.305ZM475.555,1264.1L475.859,872.273L502.984,870.078L502.728,1246M784.934,742.861L786.807,617.478L884.99,615.537L884.34,740.04M1160.71,863.63L1170.59,1217.31L1195.15,1239.54L1191.53,860.263" style="fill:rgb(154,109,90);stroke:rgb(154,109,90);stroke-width:6px;"/>
    <path d="M488.868,807.949L478.345,861.658L427.908,861.833L428.973,851.74L824.224,484.145L1234.44,846.093L1232.67,854.794L1181.9,858.011C1183.03,841.234 1179.55,808.503 1179.55,808.503L1117.38,753.734L1021.4,668.027L824.879,493.947L488.868,807.949Z" style="fill:rgb(118,82,31);stroke:rgb(118,82,31);stroke-width:6px;"/>
    <path d="M477.556,1390.29L505.678,1390.67L525.204,1835.7L494.583,1836.29" style="fill:rgb(154,109,90);stroke:rgb(154,109,90);stroke-width:6px;"/>
    <path d="M931.638,1825.52L920.766,1422.13L920.582,1405.41L906.123,1385.66L970.477,1383.43L958.078,1408.24L972.85,1823.78L931.638,1825.52Z" style="fill:rgb(154,109,90);stroke:rgb(154,109,90);stroke-width:6px;"/>
    <path d="M421.081,1839.13L406.031,1415.71L403.174,1405.67L394.667,1393.08L464.385,1391L454.263,1407.63L472.818,1837.14L421.081,1839.13Z" style="fill:rgb(154,109,90);stroke:rgb(154,109,90);stroke-width:6px;"/>
    <path d="M1193.27,1822.13L1195.57,1413.09L1177.95,1376.78L1252.99,1379.43L1242.19,1405.42L1236.57,1822.22" style="fill:rgb(154,109,90);stroke:rgb(154,109,90);stroke-width:6px;"/>
    <path d="M363.723,1390.02L353.114,1375.32L1312.03,1368.69L1305.76,1377.09L363.723,1390.02Z" style="fill:rgb(118,82,31);stroke:rgb(118,82,31);stroke-width:6px;"/>
    <path d="M349.679,1372.01L343.093,1353.72L936.721,1345.38L937.738,1366.9L349.679,1372.01Z" style="fill:rgb(154,109,90);stroke:rgb(154,109,90);stroke-width:6px;"/>
    <g transform="matrix(1.00134,0,0,0.784007,-0.466628,286.59)">
        <path d="M347.825,1355.42L388.518,1339.75L908.123,1326.85L924.218,1326.99L935.074,1326.98L935.369,1346.66L347.825,1355.42Z" style="fill:rgb(118,82,31);stroke:rgb(118,82,31);stroke-width:6.67px;"/>
    </g>
    <path d="M380.803,1333.76L560.373,1206.85L1035.87,1205.42L919.946,1324.34L380.803,1333.76Z" style="fill:rgb(118,82,31);stroke:rgb(118,82,31);stroke-width:6px;"/>
    <path d="M940.144,1364.79L937.367,1326.56L949.474,1327.07L1095.39,1177.95L1269.73,1334.2L1271.72,1364.45L1242.6,1364.19L1237.61,1345.93L1209.89,1319.85L1092.22,1209.77L940.144,1364.79Z" style="fill:rgb(118,82,31);stroke:rgb(118,82,31);stroke-width:6px;"/>
    <path d="M945.91,1321.73L922.326,1324.42L1091.03,1159.96L1296.24,1329.78L1298.56,1344.28L1275.62,1341.96L1271.52,1327.22L1093.87,1175.78L945.91,1321.73Z" style="fill:rgb(154,109,90);stroke:rgb(154,109,90);stroke-width:6px;"/>
    <path d="M421.989,2063.49L416.026,1933.81L989.385,1904.54L993.782,2039.79L421.989,2063.49ZM1162.3,2032.4L1161.3,1894.18L1272.05,1894.72L1275.83,2026.85" style="fill:rgb(202,171,140);stroke:rgb(201,170,138);stroke-width:6px;"/>
    <path d="M920.078,2045.64C918.317,2044.57 917.104,2042.67 917.012,2040.47L916.482,2027.77C916.336,2024.26 919.062,2021.3 922.565,2021.15L992.799,2018.22C993.969,2018.17 995.079,2018.44 996.044,2018.96C997.968,2019.98 996.072,2021.55 996.17,2023.89L997.102,2037C997.2,2039.35 998.844,2041.47 996.986,2042.64C972.066,2043.61 946.33,2044.62 920.078,2045.64ZM474.87,1955.78L475.549,1972.05C475.737,1976.54 472.244,1980.34 467.753,1980.53L430.66,1982.08C426.17,1982.26 422.372,1978.77 422.185,1974.28L421.505,1958.01C421.318,1953.52 424.811,1949.72 429.301,1949.53L466.394,1947.98C470.885,1947.8 474.682,1951.29 474.87,1955.78ZM601.844,1950.14L602.602,1968.28C602.811,1973.29 598.917,1977.52 593.912,1977.73L546.243,1979.72C541.239,1979.93 537.006,1976.03 536.797,1971.03L536.04,1952.89C535.831,1947.89 539.724,1943.65 544.729,1943.45L592.398,1941.46C597.403,1941.25 601.635,1945.14 601.844,1950.14ZM609.01,2057.7C606.891,2056.98 605.325,2055.01 605.226,2052.64L604.761,2041.5C604.632,2038.42 607.026,2035.82 610.103,2035.69L694.486,2032.16C697.563,2032.04 700.165,2034.43 700.294,2037.51L700.759,2048.66C700.873,2051.38 699.012,2053.73 696.45,2054.32C666.793,2055.47 637.512,2056.6 609.01,2057.7ZM1197.73,2033.74C1196.53,2033.08 1194.86,2032.91 1194.8,2031.45L1194.46,2023.4C1194.37,2021.18 1196.1,2019.3 1198.32,2019.21L1241.57,2017.4C1243.79,2017.31 1245.67,2019.04 1245.76,2021.26L1246.1,2029.31C1246.16,2030.86 1244.2,2030.35 1242.94,2031.07C1229.35,2031.6 1215.48,2033.04 1197.73,2033.74ZM1273.58,1916.96L1271.72,1930.62C1271.88,1934.66 1264.03,1937.74 1259.99,1937.9L1237.37,1938.31C1233.33,1938.48 1229.91,1935.34 1229.75,1931.3L1229.13,1916.66C1228.96,1912.62 1232.11,1909.2 1236.15,1909.03L1267.18,1904.86C1271.22,1904.69 1273.41,1912.92 1273.58,1916.96ZM858.764,1985.47L859.416,2001.1C859.596,2005.41 856.241,2009.06 851.928,2009.24L772.024,2012.58C767.711,2012.76 764.063,2009.4 763.883,2005.09L763.231,1989.46C763.051,1985.15 766.406,1981.5 770.719,1981.32L850.623,1977.98C854.936,1977.8 858.583,1981.16 858.764,1985.47Z" style="fill:rgb(243,211,161);"/>
    <path d="M1265.42,1990.78L1276.8,1990.07C1273.8,1993.92 1277.07,2002.82 1275.11,2002.9L1194.44,2008.42C1192.48,2008.5 1190.83,2006.98 1190.74,2005.02L1190.45,1997.92C1190.37,1995.96 1191.89,1994.3 1193.85,1994.22L1239.23,1992.31C1241.19,1992.22 1265.33,1988.82 1265.42,1990.78ZM563.616,1998.53L564.274,2014.3C564.456,2018.64 561.071,2022.33 556.721,2022.51L494.934,2025.09C490.584,2025.27 486.904,2021.88 486.723,2017.53L486.064,2001.77C485.883,1997.42 489.267,1993.74 493.618,1993.56L555.404,1990.98C559.755,1990.8 563.434,1994.18 563.616,1998.53ZM776.973,2034.06L777.437,2045.19C777.565,2048.26 775.177,2050.85 772.107,2050.98L725.607,2052.92C722.537,2053.05 719.94,2050.66 719.812,2047.59L719.348,2036.47C719.219,2033.4 721.608,2030.8 724.678,2030.67L771.178,2028.73C774.248,2028.61 776.844,2030.99 776.973,2034.06ZM925.956,1935.92L926.755,1955.05C926.975,1960.33 922.868,1964.8 917.589,1965.02L846.028,1968.01C840.749,1968.23 836.284,1964.12 836.064,1958.84L835.265,1939.71C835.044,1934.43 839.151,1929.97 844.431,1929.74L915.991,1926.76C921.271,1926.54 925.736,1930.64 925.956,1935.92Z" style="fill:rgb(151,188,183);"/>
    <path d="M470.885,2043.67L471.416,2056.39C471.562,2059.9 468.832,2062.86 465.323,2063.01L430.723,2064.45C427.214,2064.6 424.246,2061.87 424.1,2058.36L423.569,2045.65C423.422,2042.14 426.152,2039.17 429.662,2039.02L464.261,2037.58C467.771,2037.43 470.738,2040.16 470.885,2043.67ZM1276.09,2016.01L1277.86,2020.06C1277.95,2022.25 1278.33,2027.93 1276.13,2028.02L1261.54,2028.75C1259.35,2028.84 1255.16,2030.57 1255.07,2028.38L1254.74,2020.44C1254.64,2018.25 1256.35,2016.4 1258.54,2016.31L1268.38,2015.61C1270.57,2015.52 1276,2013.82 1276.09,2016.01ZM1215.95,1916L1216.58,1931.25C1216.76,1935.46 1213.49,1939.02 1209.28,1939.2L1174.61,1940.65C1170.4,1940.82 1166.84,1937.55 1166.66,1933.34L1166.03,1918.08C1165.85,1913.87 1169.13,1910.31 1173.34,1910.13L1208,1908.69C1212.21,1908.51 1215.77,1911.79 1215.95,1916ZM639.162,1995.28L639.799,2010.55C639.975,2014.77 636.696,2018.33 632.481,2018.51L588.631,2020.34C584.416,2020.52 580.851,2017.24 580.675,2013.02L580.037,1997.75C579.861,1993.53 583.14,1989.97 587.355,1989.79L631.205,1987.96C635.421,1987.79 638.986,1991.07 639.162,1995.28ZM818.637,1940.89L819.445,1960.24C819.668,1965.58 815.514,1970.1 810.174,1970.32L744.56,1973.06C739.221,1973.28 734.705,1969.13 734.482,1963.79L733.674,1944.44C733.451,1939.1 737.605,1934.58 742.944,1934.36L808.558,1931.62C813.898,1931.4 818.414,1935.55 818.637,1940.89Z" style="fill:rgb(243,161,170);"/>
    <path d="M871.964,727.289L873.541,613.356L886.878,621.675L882.478,738.683L871.964,727.289ZM792.584,619.589L884.89,617.697L792.584,619.589ZM798.048,743.005L789.788,727.929L882.707,727.224L882.478,738.683L798.048,743.005ZM798.048,743.005L794.341,619.553L787.257,619.698L784.667,741.314L798.048,743.005Z" style="fill:rgb(243,161,170);stroke:rgb(243,161,170);stroke-width:7.27px;"/>
    <path d="M1272.25,1955.81L1273.07,1964.42C1273.27,1969.2 1269.96,1978.52 1265.18,1978.72L1191.92,1983.88C1187.14,1984.08 1183.1,1980.37 1182.9,1975.59L1182.18,1958.28C1181.98,1953.51 1185.7,1949.47 1190.47,1949.27L1263.66,1944.71C1268.44,1944.51 1272.05,1951.03 1272.25,1955.81ZM520.639,1953.46L521.396,1971.6C521.605,1976.6 517.711,1980.84 512.707,1981.04L494.571,1981.8C489.567,1982.01 485.334,1978.12 485.125,1973.11L484.368,1954.98C484.159,1949.97 488.052,1945.74 493.057,1945.53L511.192,1944.77C516.197,1944.56 520.43,1948.46 520.639,1953.46ZM580.194,2041.23L580.66,2052.38C580.788,2055.46 578.395,2058.06 575.318,2058.19L490.935,2061.71C487.858,2061.84 485.256,2059.45 485.127,2056.37L484.662,2045.22C484.533,2042.14 486.927,2039.54 490.004,2039.41L574.386,2035.89C577.463,2035.76 580.066,2038.15 580.194,2041.23ZM986.233,1931.87L987.042,1951.26C987.266,1956.61 983.103,1961.13 977.754,1961.36L947.22,1962.63C941.87,1962.86 937.345,1958.69 937.121,1953.34L936.312,1933.96C936.089,1928.61 940.251,1924.08 945.601,1923.86L976.135,1922.59C981.484,1922.36 986.009,1926.52 986.233,1931.87ZM890.834,2029.2L891.285,2040C891.409,2042.98 889.091,2045.5 886.112,2045.62L804.141,2049.05C801.162,2049.17 798.642,2046.85 798.517,2043.87L798.067,2033.08C797.942,2030.1 800.26,2027.58 803.24,2027.45L885.21,2024.03C888.19,2023.9 890.71,2026.22 890.834,2029.2ZM718.128,1945.03L718.917,1963.91C719.134,1969.12 715.081,1973.53 709.872,1973.74L624.098,1977.32C618.889,1977.54 614.483,1973.49 614.265,1968.28L613.477,1949.4C613.26,1944.19 617.312,1939.79 622.522,1939.57L708.295,1935.99C713.505,1935.77 717.911,1939.82 718.128,1945.03Z" style="fill:rgb(187,139,112);"/>
    <g transform="matrix(0.996812,0,0,0.974397,4.00254,45.5723)">
        <path d="M421.815,1933.81L417.942,1844.98L985.803,1830.01L989.059,1906.26L421.815,1933.81ZM1255.69,1891.46L1158.46,1898.64L1158.41,1824.3L1240.93,1820.63L1239.95,1779.98L1254.25,1808.28L1255.69,1891.46Z" style="fill:rgb(159,129,112);stroke:rgb(159,129,112);stroke-width:6.09px;"/>
    </g>
    <path d="M668.221,912.316L668.988,897.206L660.221,883.849L837.116,870.405L1006.61,880.256L1000.57,891.536L1001.16,910.728L877.153,910.053L746.395,912.184L668.221,912.316Z" style="fill:rgb(205,188,171);stroke:rgb(205,188,171);stroke-width:7.27px;"/>
    <path d="M421.34,1884.92L422.158,1875.76L989.462,1858.06L990.256,1867.12L421.34,1884.92Z" style="fill:rgb(204,160,135);stroke:rgb(193,173,162);stroke-width:3.8px;"/>
    <path d="M994.683,1856.05L992.983,1869.64L1151.74,1861.08L1149.78,1847.32L994.683,1856.05ZM999.202,1970.95L998.342,2005.49L1157.34,1995.52L1156.14,1964.05L999.202,1970.95ZM993.386,1906.76L995.052,1921.19L1156.91,1917.13L1157.49,1900.05L993.386,1906.76Z" style="fill:rgb(204,170,135);stroke:rgb(204,170,135);stroke-width:1.74px;"/>
    <path d="M1158.65,1858.12L1159.43,1850.45L1254.27,1847.43L1254.09,1856.23L1158.65,1858.12Z" style="fill:rgb(203,169,135);stroke:rgb(204,170,135);stroke-width:3.8px;"/>
    <path d="M1006.81,1818.31L1000.59,1479.99L1154.29,1476.31L1162.52,1819.32L1151.97,1819.32L1143.88,1485.17L1007.41,1488.77L1014.41,1818.45L1006.81,1818.31Z" style="fill:rgb(243,161,170);stroke:rgb(243,161,170);stroke-width:3.8px;"/>
    <path d="M987.894,1821.25L1153.09,1813.55L1154.68,1849.62L989.867,1854.79L987.894,1821.25ZM994.329,1905.04L993.861,1869.64L1154.67,1862.94L1155.87,1897.32L994.329,1905.04ZM996.467,1971.02L996.005,1923.19L1154.77,1914.13L1162.51,1964.44L996.467,1971.02ZM993.249,2039.67L993.591,1995.36L1161.05,1988.85L1162.24,2036.67L993.249,2039.67Z" style="fill:rgb(159,129,112);stroke:rgb(159,129,112);stroke-width:1.74px;"/>
    <path d="M1017.75,1816.54L1008.83,1490.81L1140.89,1488.84L1151.33,1813.75L1139.51,1814.42L1131.26,1501.85L1018.18,1505.23L1026.15,1816.39L1017.75,1816.54ZM1021.3,1627.23L1134.5,1624.61L1134.67,1630.97L1021.43,1632.55L1021.3,1627.23ZM1021.88,1650.17L1021.78,1646.22L1135.01,1643.75L1135.14,1648.79L1021.88,1650.17ZM1022.35,1668.37L1022.2,1662.54L1135.47,1661.47L1135.6,1666.31L1022.35,1668.37ZM1026.15,1816.39L1025.83,1804.54L1139.19,1802.25L1139.51,1814.42L1026.15,1816.39Z" style="fill:rgb(118,82,31);stroke:rgb(118,82,31);stroke-width:1.74px;"/>
    <path d="M1141,1965.25C1122,1965.87 1103.01,1967.03 1084.01,1967.72C1064.51,1968.44 1045.03,1969.47 1025.5,1969.58C1019.46,1969.62 1013.31,1969.83 1007.5,1972M1153,1860.5C1138.81,1859.85 1124.66,1861.22 1110.51,1861.67C1096.17,1862.13 1081.84,1862.96 1067.51,1863.66C1049.84,1864.52 1032.14,1864.92 1014.51,1866.19C996.331,1867.5 978.163,1866.58 959.995,1867.4C932.846,1868.62 905.659,1868.99 878.502,1870.06C858.005,1870.87 837.506,1871.49 817.003,1872.1C796.169,1872.73 754.504,1874.12 754.504,1874.12L693.004,1876.13L630.854,1877.86L573.725,1880.58L547.248,1881.87L527.054,1882.63L452.164,1884.72C452.164,1884.72 432.403,1884.03 423.485,1885.93C421.253,1886.4 421.748,1885.94 419.415,1885.94M1160.29,1997.72C1141.96,1998.05 1126.8,1998.11 1108.51,1999.21C1097.82,1999.86 1087.14,1999.31 1076.51,2000.09C1056.86,2001.52 1037.15,2001.24 1017.5,2002.5M1151.5,1916C1138.98,1919.1 1126.17,1917.88 1113.5,1918.4C1095.51,1919.13 1077.5,1919.14 1059.5,1919.51C1036.83,1919.97 1014.18,1921.25 991.5,1921M1093.5,1176.5C1107.5,1188.67 1121.5,1200.84 1135.5,1213C1144.33,1220.67 1153.19,1228.31 1161.98,1236.03M851.936,948.501C852.227,972.333 851.949,996.177 852.582,1020C853.801,1065.83 853.338,1111.66 853.56,1157.5C853.577,1160.82 852.468,1164.07 853.863,1167.56C855.126,1170.71 856.459,1171.68 860.001,1171.65C870.331,1171.56 880.672,1172.07 890.993,1172.64C892.085,1172.7 893.342,1172.94 894.501,1172.97C909.833,1173.35 925.18,1173.39 940.495,1174.1C949.84,1174.54 959.172,1174.17 968.498,1174.55C972.498,1174.72 976.428,1175.66 980.502,1175.56C988.366,1175.36 989.556,1174.18 989.526,1166.5C989.448,1146.67 989.5,1126.83 989.5,1107C989.5,1089 989.626,1071 989.459,1053C989.332,1039.33 988.316,1025.65 988.629,1012C989.038,994.165 988.86,976.333 988.973,958.5C988.994,955.168 988.774,951.823 988.471,948.503M401.633,1420.55C401.633,1420.55 403.223,1415.72 402.384,1411.14C402.126,1409.74 399.794,1407.51 398.734,1406.16C396.722,1403.61 390.419,1391.46 390.419,1391.46M467.661,1390.07L455.935,1409.92L475.209,1838.65C475.209,1838.65 977.912,1828.72 975.466,1825.84C973.019,1822.97 960.715,1414.84 960.715,1414.84L960.559,1406.84L976.456,1382.23L901.363,1383.21L918.05,1405.86L929.384,1827.87L419.217,1841.98M563.109,1205.19C518.555,1236.66 380.629,1331.97 379.162,1334.56C377.43,1337.61 918.135,1323.72 918.135,1323.72L1060.8,1184.07L613.703,1188.13M1014.24,965.556L1016.09,1041.74L1047.6,1043.33L1047.84,963.399C1045.11,951.659 1038.66,947.373 1030.55,946.408C1022.22,947.173 1016.12,952.255 1014.24,965.556ZM423.238,857.132C423.238,857.132 408.294,857.513 404.299,852.374C399.185,845.793 392.553,817.651 392.553,817.651L435.123,818.85M380.035,1336.79L338.431,1351.45L932.832,1343.69M1060.8,1184.07L1093.09,1155.58L1297.1,1327.65L1298.01,1344.85L1273.61,1344.89M919.008,1325.95L947.125,1323.35L1094.03,1176.79L1271.41,1331.16L1272.99,1360.52M423.436,2064.78C714.776,2053.79 1276.97,2028.76 1276.97,2028.76L1274.05,1893.19L1157.26,1898.22L981.332,1904.89L412.573,1933.03M401.633,1420.55L421.196,1932.56M412.573,1933.03L416.645,2065.55L438.928,2064.79M520.639,1953.46L521.396,1971.6C521.605,1976.6 517.711,1980.84 512.707,1981.04L494.571,1981.8C489.567,1982.01 485.334,1978.12 485.125,1973.11L484.368,1954.98C484.159,1949.97 488.052,1945.74 493.057,1945.53L511.192,1944.77C516.197,1944.56 520.43,1948.46 520.639,1953.46ZM601.844,1950.14L602.602,1968.28C602.811,1973.29 598.917,1977.52 593.912,1977.73L546.243,1979.72C541.239,1979.93 537.006,1976.03 536.797,1971.03L536.04,1952.89C535.831,1947.89 539.724,1943.65 544.729,1943.45L592.398,1941.46C597.403,1941.25 601.635,1945.14 601.844,1950.14ZM718.128,1945.03L718.917,1963.91C719.134,1969.12 715.081,1973.53 709.872,1973.74L624.098,1977.32C618.889,1977.54 614.483,1973.49 614.265,1968.28L613.477,1949.4C613.26,1944.19 617.312,1939.79 622.522,1939.57L708.295,1935.99C713.505,1935.77 717.911,1939.82 718.128,1945.03ZM818.637,1940.89L819.445,1960.24C819.668,1965.58 815.514,1970.1 810.174,1970.32L744.56,1973.06C739.221,1973.28 734.705,1969.13 734.482,1963.79L733.674,1944.44C733.451,1939.1 737.605,1934.58 742.944,1934.36L808.558,1931.62C813.898,1931.4 818.414,1935.55 818.637,1940.89ZM925.956,1935.92L926.755,1955.05C926.975,1960.33 922.868,1964.8 917.589,1965.02L846.028,1968.01C840.749,1968.23 836.284,1964.12 836.064,1958.84L835.265,1939.71C835.044,1934.43 839.151,1929.97 844.431,1929.74L915.991,1926.76C921.271,1926.54 925.736,1930.64 925.956,1935.92ZM986.233,1931.87L987.042,1951.26C987.266,1956.61 983.103,1961.13 977.754,1961.36L947.22,1962.63C941.87,1962.86 937.345,1958.69 937.121,1953.34L936.312,1933.96C936.089,1928.61 940.251,1924.08 945.601,1923.86L976.135,1922.59C981.484,1922.36 986.009,1926.52 986.233,1931.87ZM1215.95,1916L1216.58,1931.25C1216.76,1935.46 1213.49,1939.02 1209.28,1939.2L1174.61,1940.65C1170.4,1940.82 1166.84,1937.55 1166.66,1933.34L1166.03,1918.08C1165.85,1913.87 1169.13,1910.31 1173.34,1910.13L1208,1908.69C1212.21,1908.51 1215.77,1911.79 1215.95,1916ZM1271.67,1953.5L1272.39,1970.8C1272.59,1975.58 1268.88,1979.62 1264.1,1979.82L1191.92,1983.88C1187.14,1984.08 1183.1,1980.37 1182.9,1975.59L1182.18,1958.28C1181.98,1953.51 1185.7,1949.47 1190.47,1949.27L1262.65,1945.2C1267.43,1945 1271.47,1948.72 1271.67,1953.5ZM1276.15,1990.79L1276.36,2000.45C1276.44,2002.41 1276.22,2003.96 1274.26,2004.04L1194.44,2008.42C1192.48,2008.5 1190.83,2006.98 1190.74,2005.02L1190.45,1997.92C1190.37,1995.96 1191.89,1994.3 1193.85,1994.22L1273.66,1989.84C1275.62,1989.76 1276.07,1988.83 1276.15,1990.79ZM1272.18,1913.81L1272.79,1928.45C1272.96,1932.49 1269.82,1935.91 1265.78,1936.08L1237.37,1938.31C1233.33,1938.48 1229.91,1935.34 1229.75,1931.3L1229.13,1916.66C1228.96,1912.62 1232.11,1909.2 1236.15,1909.03L1264.55,1906.8C1268.59,1906.63 1272.01,1909.77 1272.18,1913.81ZM470.29,2002.53L470.969,2018.8C471.156,2023.29 467.663,2027.09 463.173,2027.27L432.128,2028.57C427.638,2028.76 423.84,2025.26 423.653,2020.77L422.974,2004.5C422.786,2000.01 426.279,1996.21 430.77,1996.03L461.814,1994.73C466.304,1994.54 470.102,1998.04 470.29,2002.53ZM474.87,1955.78L475.549,1972.05C475.737,1976.54 472.244,1980.34 467.753,1980.53L430.66,1982.08C426.17,1982.26 422.372,1978.77 422.185,1974.28L421.505,1958.01C421.318,1953.52 424.811,1949.72 429.301,1949.53L466.394,1947.98C470.885,1947.8 474.682,1951.29 474.87,1955.78ZM470.885,2043.67L471.416,2056.39C471.562,2059.9 468.832,2062.86 465.323,2063.01L430.723,2064.45C427.214,2064.6 424.246,2061.87 424.1,2058.36L423.569,2045.65C423.422,2042.14 426.152,2039.17 429.662,2039.02L464.261,2037.58C467.771,2037.43 470.738,2040.16 470.885,2043.67ZM563.616,1998.53L564.274,2014.3C564.456,2018.64 561.071,2022.33 556.721,2022.51L494.934,2025.09C490.584,2025.27 486.904,2021.88 486.723,2017.53L486.064,2001.77C485.883,1997.42 489.267,1993.74 493.618,1993.56L555.404,1990.98C559.755,1990.8 563.434,1994.18 563.616,1998.53ZM639.162,1995.28L639.799,2010.55C639.975,2014.77 636.696,2018.33 632.481,2018.51L588.631,2020.34C584.416,2020.52 580.851,2017.24 580.675,2013.02L580.037,1997.75C579.861,1993.53 583.14,1989.97 587.355,1989.79L631.205,1987.96C635.421,1987.79 638.986,1991.07 639.162,1995.28ZM751.194,1990.12L751.846,2005.75C752.026,2010.06 748.671,2013.71 744.358,2013.89L664.455,2017.22C660.142,2017.4 656.494,2014.05 656.314,2009.73L655.661,1994.11C655.481,1989.79 658.836,1986.14 663.149,1985.96L743.053,1982.63C747.366,1982.45 751.014,1985.8 751.194,1990.12ZM858.764,1985.47L859.416,2001.1C859.596,2005.41 856.241,2009.06 851.928,2009.24L772.024,2012.58C767.711,2012.76 764.063,2009.4 763.883,2005.09L763.231,1989.46C763.051,1985.15 766.406,1981.5 770.719,1981.32L850.623,1977.98C854.936,1977.8 858.583,1981.16 858.764,1985.47ZM974.265,1979.71L974.917,1995.34C975.097,1999.65 971.742,2003.3 967.429,2003.48L887.525,2006.82C883.212,2007 879.564,2003.64 879.384,1999.33L878.732,1983.7C878.552,1979.38 881.907,1975.74 886.22,1975.56L966.124,1972.22C970.437,1972.04 974.084,1975.4 974.265,1979.71ZM776.973,2034.06L777.437,2045.19C777.565,2048.26 775.177,2050.85 772.107,2050.98L725.607,2052.92C722.537,2053.05 719.94,2050.66 719.812,2047.59L719.348,2036.47C719.219,2033.4 721.608,2030.8 724.678,2030.67L771.178,2028.73C774.248,2028.61 776.844,2030.99 776.973,2034.06ZM890.834,2029.2L891.285,2040C891.409,2042.98 889.091,2045.5 886.112,2045.62L804.141,2049.05C801.162,2049.17 798.642,2046.85 798.517,2043.87L798.067,2033.08C797.942,2030.1 800.26,2027.58 803.24,2027.45L885.21,2024.03C888.19,2023.9 890.71,2026.22 890.834,2029.2ZM996.217,2023.11L996.822,2037.69C991.999,2041.02 997.052,2041.03 993.548,2041.18L924.682,2044.15C921.178,2044.3 917.158,2043.97 917.012,2040.47L916.482,2027.77C916.336,2024.26 919.062,2021.3 922.565,2021.15L992.799,2018.22C996.303,2018.08 996.07,2019.6 996.217,2023.11ZM1276.75,2018.34L1276.92,2026.35C1277.01,2028.54 1275.59,2028.83 1273.4,2028.92L1259.83,2029.53C1257.64,2029.62 1255.16,2030.57 1255.07,2028.38L1254.74,2020.44C1254.64,2018.25 1256.35,2016.4 1258.54,2016.31L1273.18,2014.65C1275.37,2014.56 1276.66,2016.15 1276.75,2018.34ZM1245.76,2021.26L1245.38,2028.09C1245.48,2030.31 1242.04,2030.32 1239.82,2030.41L1199.81,2032.18C1197.59,2032.27 1194.75,2031.66 1194.65,2029.44L1194.46,2023.4C1194.37,2021.18 1196.1,2019.3 1198.32,2019.21L1241.57,2017.4C1243.79,2017.31 1245.67,2019.04 1245.76,2021.26ZM580.194,2041.23L580.66,2052.38C580.788,2055.46 578.395,2058.06 575.318,2058.19L490.935,2061.71C487.858,2061.84 485.256,2059.45 485.127,2056.37L484.662,2045.22C484.533,2042.14 486.927,2039.54 490.004,2039.41L574.386,2035.89C577.463,2035.76 580.066,2038.15 580.194,2041.23ZM700.294,2037.51L700.759,2048.66C700.888,2051.73 698.494,2054.34 695.417,2054.46L611.034,2057.99C607.957,2058.12 605.355,2055.72 605.226,2052.64L604.761,2041.5C604.632,2038.42 607.026,2035.82 610.103,2035.69L694.486,2032.16C697.563,2032.04 700.165,2034.43 700.294,2037.51ZM553.695,1723.48L545.374,1498.55L845.471,1486.78L854.733,1716.61L553.695,1723.48ZM650.491,1674.15L655.693,1832.03M763.991,1671.15L766.005,1828.94M793.02,1670.38L797.082,1827.86M725.982,1672.15L730.779,1831.56M611.327,1676.67L615.654,1833.19M570.417,1676.27L577.378,1834.38M533.617,1676.51C533.617,1676.51 540.833,1839.32 539.304,1835.51M497.306,1678.21L502.543,1833.72M1161.33,2031.93L1151.17,1698.45C1151.17,1698.45 1153.83,1680.73 1158.47,1673.27C1169.53,1655.51 1239.74,1663.35 1239.74,1663.35M691.304,1673.07L696.011,1832.53M337.786,1353.67L348.759,1373.36L1315.68,1366.61L1308.6,1377.86L362.468,1390.29L348.759,1373.36M936.483,1327.95L939.278,1366.14M941.396,1363.76L1092.08,1211.27L1237.09,1346.01L1242.55,1365M563.109,1205.19C563.109,1205.19 1035.2,1201.99 1042.99,1201.51M403.331,1414.77L456.276,1412.5M505.624,1244.34L501.79,869.584L473.528,869.447L474.009,1267.43M479.227,864.679L425.62,864.189C425.62,864.189 456.99,919.35 469.941,918.057M479.486,865.27L490.302,808.989M424.959,860.815L438.828,815.81L825.847,467.911L1224.77,806.788M1237.3,848.5L826.292,482.07L425.865,853.372M668.185,915.095L1001.86,911.99M974.001,891.597L973.919,910.723M1193.99,997.868L1194.5,1238.01M435.268,815.979L421.822,790.051L827.046,450.57L1240.48,782.428M1241.24,783.091L1227.3,808.622M1238.42,847.632L1226.34,811.062L1268.69,808.189L1257.84,840.552L1238.42,847.632ZM490.429,808.006L825.943,496.827L1179.11,809.673M665.747,900.282C665.747,900.282 892.914,885.096 1002.27,894.65M690.674,893.161L691.269,914.959M667.029,904.553L999.251,899.576M658.14,882.061C713.575,879.503 740.627,872.222 798.835,870.126C843.051,868.533 905.244,869.932 1011.51,878.665M989.693,1173.3L856.385,1172.93L849.912,948.337L990.041,948.059L989.693,1173.3ZM864.216,1150.36L979.988,1151.03M862.909,1060.19L980.078,1060.65M861.654,1045.1L979.851,1045.19M687.018,1176.92L680.596,948.072L818.941,944.872L821.269,1172.25L687.018,1176.92ZM696.566,1153.56L807.779,1150.24M694.459,1063.45L806.579,1061.96M695.119,1048.56L808.066,1044.91M695.453,1166.5L692.637,959.914L808.567,955.69L810.221,1161.95L695.453,1166.5ZM1179.03,809.025L1181.66,860.717L1232.97,856.477L1238.58,846.802M819.117,711.464L853.53,711.164M809.73,694.762L859.532,693.709M815.401,673.847L855.896,672.277M812.587,658.013L857.469,657.899M785.657,613.946C785.657,613.946 779.54,743.201 783.258,744.36C786.976,745.519 884.749,741.745 884.749,741.745C884.749,741.745 891.927,615.212 886.576,612.538C881.224,609.865 785.657,613.946 785.657,613.946ZM798.554,624.968C798.302,631.789 800.331,726.442 800.331,726.442L869.554,725.134L871.069,622.927C871.069,622.927 798.807,618.146 798.554,624.968ZM1021.02,958.622L1038.33,958.47M806.621,643.481L862.274,642.055M1168.04,1217.95L1159.45,861.315L1181.2,861.35M668.556,1174.28L667.235,934.421L612.23,933.903L613.703,1188.13M1008.02,1184.55L1004.17,912.841L1001.63,893.485L1009.82,881.638M1002.9,930.611L1054.82,928.239L1060.8,1184.07M624.572,960.229C625.979,958.624 628.4,952.704 631.787,950.88C638.482,947.275 642.542,949.083 645.858,951.065C648.821,952.837 652.807,959.819 653.355,960.461L654.982,1047.48L624.156,1048.49L624.572,960.229ZM625.127,1059.27L652.878,1057.55L652.856,1164.54L626.209,1164.77L625.127,1059.27ZM629.187,970.147L648.917,970.482M629.878,981.436L648.731,981.794M630.383,963.212L648.182,962.831M630.363,996.339L648.602,995.813M629.733,1006.91L649.107,1007.52M628.452,1018.7L649.381,1019.67M629.333,1034.74L647.782,1034.83M1019.68,966.606L1040.47,965.204M1019.03,977.643L1040.69,976.987M1020.3,991.878L1041.52,992.481M1022.08,1003.07L1040.02,1002.53M1022.49,1015.61L1041.3,1014.96M1024.2,1030.02L1040.19,1029.85M920.389,1408.55L961.273,1409.42M1021.96,1162.55L1018.14,1054.83L1046.59,1052.73L1050.03,1162.2L1021.96,1162.55ZM476.359,1388.79L494.214,1835.22M508.494,1391.34L526.677,1833.6M1005.62,1818.76L998.133,1477.05L1154.85,1474.67L1162.91,1822.52M1017.47,1818.53L1007.58,1490.16L1141.89,1487.63L1151.14,1815.79M1005.62,1818.76L1151.18,1815.98M864.031,1164.56L859.573,954.238L980.518,955.026L979.875,1165.61L864.031,1164.56ZM1257.16,1893.79L1256.39,1858.16C1256.39,1858.16 1262.95,1788.1 1238.35,1776.77M1255.59,1378.56L1244.21,1406.06L1190.37,1407.46L1180.35,1379.55M1244.21,1406.06L1239.74,1663.35M1154.96,1822.92L1256.26,1817.86L1256.39,1858.16L1156.08,1859.44M656.36,882.998L664.339,892.296L666.368,903.234L666.596,918.768M666.995,894.071C666.995,894.071 896.855,865.111 1002.06,891.432M411.519,1679.28L946.029,1666.33C946.029,1666.33 969.941,1673.1 976.229,1682.55C982.516,1692 983.755,1723.04 983.755,1723.04L996.907,2039.74M905.025,1667.41L909.944,1827.36M883.764,1667.97L888.122,1828.4M863.972,1668.5L869.125,1827.36M842.712,1669.06L845.932,1825.57M816.64,1669.75L821.111,1827.94M1192.74,859.724L1193.22,991.652M1190.37,1407.46L1192.06,1821.07M1180.49,1663.36L1182.13,1821.24M1239.74,1663.35L1237.86,1815.98M1130,1502.36L1133.22,1624.4L1022.46,1627.33L1019.24,1505.28L1130,1502.36ZM1134.89,1667.15L1138.07,1801.92L1026.27,1804.56L1023.09,1669.79L1134.89,1667.15ZM1133.5,1631.43L1133.79,1643.06L1023.33,1645.82L1023.04,1634.19L1133.5,1631.43ZM1133.89,1648.16L1134.2,1660.43L1023.63,1663.23L1023.32,1650.95L1133.89,1648.16ZM1048.8,1504.56L1050.59,1625.76L1047.06,1625.81L1045.27,1504.62L1048.8,1504.56ZM1075.38,1504.34L1077.16,1625.54L1073.63,1625.59L1071.85,1504.39L1075.38,1504.34ZM1104.83,1503.42L1106.62,1624.62L1103.09,1624.67L1101.3,1503.47L1104.83,1503.42ZM1051.54,1670.49L1053.49,1802.91L1049.98,1802.97L1048.03,1670.54L1051.54,1670.49ZM1077.63,1669.79L1079.58,1802.22L1076.07,1802.27L1074.12,1669.84L1077.63,1669.79ZM1107.59,1668.17L1109.56,1801.92L1105.81,1801.97L1103.84,1668.23L1107.59,1668.17Z" style="fill:none;fill-rule:nonzero;stroke:black;stroke-width:4px;stroke-miterlimit:4;"/>
    <path d="M418.702,1876.71L1171.92,1849.48M1157.28,1849.55C1157.28,1849.55 1254.71,1847.94 1255.36,1846.2" style="stroke:black;stroke-width:3.8px;"/>
    <path d="M793.02,1670.38L797.082,1827.86M842.712,1669.06L845.932,1825.57M532.86,1676.46L540.995,1835.28M943.525,1664.53L949.007,1824.56M883.92,1667.18L886.895,1827.26M905.38,1665.85L909.821,1827.26M924.818,1668.21L928.289,1825.28M862.809,1666.64L867.484,1828.45M494.203,1679.7L501.167,1834.43M455.934,1677.37L461.881,1836.6M413.374,1680.24L420.419,1838.19M815.87,1667.25L820.654,1827.65M1180.42,1667.7L1183.01,1820.3M1209.25,1668.51L1210.99,1817.3M1234.98,1667.16L1235.62,1816.1M762.96,1668.56L767.067,1828.82M727.185,1671.62L731.631,1831.51M690.573,1672.96L696.768,1830.71M651.07,1674.98L656.06,1831.99M611.554,1672.21L615.87,1836.16M570.13,1677.19L577.994,1833.59" style="fill:none;stroke:black;stroke-width:7px;"/>
    <path d="M414.023,1680.9C414.023,1680.9 844.023,1664.32 937.809,1664.19C951.853,1664.17 968.857,1671.06 976.742,1680.15C984.627,1689.24 984.052,1705.62 985.12,1718.74C987.08,1742.81 988.503,1824.56 988.503,1824.56L994.327,2039.23M1236.36,1663.1C1236.36,1663.1 1188.92,1664.27 1176.02,1665.48C1170.16,1666.02 1162.6,1665.31 1158.94,1670.33C1154.9,1675.9 1151.96,1689.01 1151.77,1698.87C1151.3,1724.06 1156.07,1821.46 1156.07,1821.46L1162.43,2031.88" style="fill:none;stroke:black;stroke-width:12.5px;"/>
    <path d="M1107.59,1668.17L1109.56,1801.92L1105.81,1801.97L1103.84,1668.23L1107.59,1668.17ZM1077.63,1669.79L1079.58,1802.22L1076.07,1802.27L1074.12,1669.84L1077.63,1669.79ZM1051.54,1670.49L1053.49,1802.91L1049.98,1802.97L1048.03,1670.54L1051.54,1670.49ZM1048.8,1504.56L1050.59,1625.76L1047.06,1625.81L1045.27,1504.62L1048.8,1504.56ZM1075.38,1504.34L1077.16,1625.54L1073.63,1625.59L1071.85,1504.39L1075.38,1504.34ZM1104.83,1503.42L1106.62,1624.62L1103.09,1624.67L1101.3,1503.47L1104.83,1503.42ZM1051.54,1670.49L1053.49,1802.91L1049.98,1802.97L1048.03,1670.54L1051.54,1670.49ZM1077.63,1669.79L1079.58,1802.22L1076.07,1802.27L1074.12,1669.84L1077.63,1669.79ZM1107.59,1668.17L1109.56,1801.92L1105.81,1801.97L1103.84,1668.23L1107.59,1668.17Z" style="fill:rgb(154,109,90);"/>
</svg>
